<?xml version="1.0" standalone="no"?><!DOCTYPE svg PUBLIC "-//W3C//DTD SVG 1.1//EN" "http://www.w3.org/Graphics/SVG/1.1/DTD/svg11.dtd"><svg t="1629194004763" class="icon" viewBox="0 0 1024 1024" version="1.1" xmlns="http://www.w3.org/2000/svg" p-id="2097" xmlns:xlink="http://www.w3.org/1999/xlink" width="200" height="200"><defs><style type="text/css"></style></defs><path d="M170.666667 85.333333c-47.061333 0-85.333333 38.272-85.333334 85.333334v682.666666c0 47.061333 38.272 85.333333 85.333334 85.333334h682.666666c47.061333 0 85.333333-38.272 85.333334-85.333334V170.666667c0-47.061333-38.272-85.333333-85.333334-85.333334H170.666667m0-85.333333h682.666666a170.666667 170.666667 0 0 1 170.666667 170.666667v682.666666a170.666667 170.666667 0 0 1-170.666667 170.666667H170.666667a170.666667 170.666667 0 0 1-170.666667-170.666667V170.666667a170.666667 170.666667 0 0 1 170.666667-170.666667z" fill="#707070" p-id="2098"></path><path d="M213.333333 469.333333h597.333334v85.333334H213.333333z" fill="#707070" p-id="2099"></path><path d="M554.666667 213.333333v597.333334h-85.333334V213.333333z" fill="#707070" p-id="2100"></path></svg>